<svg width="512" height="512" viewBox="0 0 512 512" fill="none" xmlns="http://www.w3.org/2000/svg">
<path d="M454 253C454 365.666 362.666 457 250 457C137.334 457 46 365.666 46 253C46 140.334 137.334 49 250 49C362.666 49 454 140.334 454 253Z" fill="#323853"/>
<path fill-rule="evenodd" clip-rule="evenodd" d="M441.088 185.001C412.455 169.685 379.742 161 345 161C232.334 161 141 252.334 141 365C141 388.097 144.839 410.298 151.912 430.999C87.691 396.644 44 328.924 44 251C44 138.334 135.334 47 248 47C337.569 47 413.656 104.725 441.088 185.001Z" fill="#6F7AA9"/>
<rect x="106" y="205" width="40" height="40" rx="5" fill="#F2F3F7"/>
<rect x="106" y="255" width="40" height="40" rx="5" fill="#F2F3F7"/>
<rect x="106" y="305" width="40" height="40" rx="5" fill="#F2F3F7"/>
<rect x="106" y="355" width="40" height="40" rx="5" fill="#F2F3F7"/>
<rect x="175" y="210" width="197" height="30" rx="15" fill="#F2F3F7"/>
<path d="M112.161 247.482C110.397 245.718 110.397 242.858 112.161 241.095L144.095 209.161C145.858 207.397 148.718 207.397 150.482 209.161C152.245 210.924 152.245 213.784 150.482 215.547L118.547 247.482C116.784 249.245 113.924 249.245 112.161 247.482Z" fill="#0BEFAA"/>
<path d="M112.161 209.161C113.924 207.397 116.784 207.397 118.547 209.161L149.843 240.456C151.607 242.22 151.607 245.079 149.843 246.843C148.079 248.607 145.22 248.607 143.456 246.843L112.161 215.547C110.397 213.784 110.397 210.924 112.161 209.161Z" fill="#0BEFAA"/>
<path d="M101.161 297.482C99.3968 295.718 99.3968 292.858 101.161 291.095L133.095 259.161C134.858 257.397 137.718 257.397 139.482 259.161C141.245 260.924 141.245 263.784 139.482 265.547L107.547 297.482C105.784 299.245 102.924 299.245 101.161 297.482Z" fill="#FF6BF0"/>
<path d="M101.161 259.161C102.924 257.397 105.784 257.397 107.547 259.161L138.843 290.456C140.607 292.22 140.607 295.079 138.843 296.843C137.079 298.607 134.22 298.607 132.456 296.843L101.161 265.547C99.3968 263.784 99.3968 260.924 101.161 259.161Z" fill="#FF6BF0"/>
<path d="M111.161 347.482C109.397 345.718 109.397 342.858 111.161 341.095L143.095 309.161C144.858 307.397 147.718 307.397 149.482 309.161C151.245 310.924 151.245 313.784 149.482 315.547L117.547 347.482C115.784 349.245 112.924 349.245 111.161 347.482Z" fill="#0BEFAA"/>
<path d="M111.161 309.161C112.924 307.397 115.784 307.397 117.547 309.161L148.843 340.456C150.607 342.22 150.607 345.079 148.843 346.843C147.079 348.607 144.22 348.607 142.456 346.843L111.161 315.547C109.397 313.784 109.397 310.924 111.161 309.161Z" fill="#0BEFAA"/>
<path d="M101.161 388.482C99.3968 386.718 99.3968 383.858 101.161 382.095L133.095 350.161C134.858 348.397 137.718 348.397 139.482 350.161C141.245 351.924 141.245 354.784 139.482 356.547L107.547 388.482C105.784 390.245 102.924 390.245 101.161 388.482Z" fill="#37BAD7"/>
<path d="M101.161 350.161C102.924 348.397 105.784 348.397 107.547 350.161L138.843 381.456C140.607 383.22 140.607 386.079 138.843 387.843C137.079 389.607 134.22 389.607 132.456 387.843L101.161 356.547C99.3968 354.784 99.3968 351.924 101.161 350.161Z" fill="#37BAD7"/>
<rect x="175" y="260" width="237" height="30" rx="15" fill="#F2F3F7"/>
<rect x="175" y="310" width="165" height="30" rx="15" fill="#F2F3F7"/>
<rect x="175" y="360" width="130" height="30" rx="15" fill="#F2F3F7"/>
</svg>
